<?xml version="1.0" standalone="no"?>
<!DOCTYPE svg PUBLIC "-//W3C//DTD SVG 20010904//EN"
 "http://www.w3.org/TR/2001/REC-SVG-20010904/DTD/svg10.dtd">
<svg version="1.0" xmlns="http://www.w3.org/2000/svg"
 width="310.000000pt" height="310.000000pt" viewBox="0 0 310.000000 310.000000"
 preserveAspectRatio="xMidYMid meet">
<metadata>
Created by potrace 1.14, written by Peter Selinger 2001-2017
</metadata>
<g transform="translate(0.000000,310.000000) scale(0.100000,-0.100000)"
fill="#000000" stroke="none">
<path d="M1540 2736 c-147 -41 -334 -173 -459 -323 -56 -66 -124 -188 -135
-240 -12 -55 -26 -48 -26 14 0 83 17 136 86 277 14 27 23 50 21 53 -6 6 -70
-48 -108 -92 -113 -128 -158 -276 -146 -483 7 -117 29 -214 82 -355 19 -50 32
-93 29 -97 -11 -10 -73 72 -113 149 -22 42 -58 130 -80 196 -48 146 -60 136
-42 -33 28 -256 93 -450 232 -692 143 -249 351 -497 587 -698 69 -59 75 -62
126 -62 38 0 57 5 68 18 9 9 43 89 76 177 89 236 231 583 303 742 10 23 19 44
19 47 0 6 20 52 92 210 37 80 64 131 123 232 26 44 72 72 137 85 60 12 72 25
62 65 l-6 24 -264 0 -264 0 -6 -25 c-10 -39 -2 -47 67 -69 55 -18 64 -25 67
-46 4 -33 -113 -348 -357 -960 -69 -174 -73 -182 -86 -184 -21 -2 -119 146
-185 279 -81 165 -129 300 -173 485 -30 130 -31 143 -32 360 0 231 2 251 48
405 48 164 149 335 274 466 40 42 73 79 73 83 0 9 -40 6 -90 -8z"/>
</g>
</svg>
